# File created by Blade
# Date/Time:  Tue Jan 27 18:12:51 2015
#---------------------------------------------------------
:version 1.10
:name HOM
:units
  mass 1.0
  length 1.000000
  angle deg
:documentation
     Acclaim Skeleton File
:root
   axis xyz
   order TX TY TZ RX RY RZ
   position 0.000000 0.000000 0.000000
   orientation 0 0 0
:bonedata
   begin
      id 1
      name Spine_dum
      direction 0.000000 1.000000 0.000000
      length 5.195262
      axis 0.0 0.0 0.0 xyz
   end
   begin
      id 2
      name LeftUpLeg_dum
      direction 1.000000 0.000000 0.000000
      length 3.351363
      axis 0.0 0.0 0.0 xyz
   end
   begin
      id 3
      name RightUpLeg_dum
      direction -1.000000 0.000000 0.000000
      length 3.351363
      axis 0.0 0.0 0.0 xyz
   end
   begin
      id 4
      name Spine
      direction 0.000000 1.000000 0.000000
      length 0.000000
      axis 0.0 0.0 0.0 xyz
      dof rx ry rz
   end
   begin
      id 5
      name Spine_dum1
      direction 0.000000 1.000000 0.000000
      length 15.653875
      axis 0.0 0.0 0.0 xyz
   end
   begin
      id 6
      name Spine_dum2
      direction 0.000000 1.000000 0.000000
      length 10.329768
      axis 0.0 0.0 0.0 xyz
   end
   begin
      id 7
      name Spine_dum3
      direction 0.000000 1.000000 0.000000
      length 10.329768
      axis 0.0 0.0 0.0 xyz
   end
   begin
      id 8
      name Head
      direction 0.000000 1.000000 0.000000
      length 4.527550
      axis 0.0 0.0 0.0 xyz
      dof rx ry rz
   end
   begin
      id 9
      name LeftShoulder
      direction 1.000000 0.000000 0.000000
      length 6.996006
      axis 0.0 0.0 -90.0 xyz
      dof rx ry rz
   end
   begin
      id 10
      name LeftArm
      direction 1.000000 0.000000 0.000000
      length 10.209302
      axis 0.0 0.0 -90.0 xyz
      dof rx ry rz
   end
   begin
      id 11
      name LeftForeArm
      direction 1.000000 0.000000 0.000000
      length 8.563163
      axis 0.0 0.0 -90.0 xyz
      dof ry rz rx
   end
   begin
      id 12
      name LeftHand
      direction 0.000000 0.000000 0.000000
      length 0.000000
      axis 0.0 0.0 -90.0 xyz
      dof rx ry rz
   end
   begin
      id 13
      name LeftHand_dum1
      direction 0.000000 0.000000 0.000000
      length 0.000000
      axis 0.0 0.0 -90.0 xyz
   end
   begin
      id 14
      name LeftHand_dum2
      direction 1.000000 0.000000 0.000000
      length 3.937000
      axis 0.0 0.0 -90.0 xyz
   end
   begin
      id 15
      name LeftHandThumb1
      direction 0.000000 0.000000 1.000000
      length 3.937000
      axis 0.0 0.0 -90.0 xyz
      dof rx rz ry
   end
   begin
      id 16
      name RightShoulder
      direction -1.000000 0.000000 0.000000
      length 6.996006
      axis 0.0 0.0 90.0 xyz
      dof rx ry rz
   end
   begin
      id 17
      name RightArm
      direction -1.000000 0.000000 0.000000
      length 10.209302
      axis 0.0 0.0 90.0 xyz
      dof rx ry rz
   end
   begin
      id 18
      name RightForeArm
      direction -1.000000 0.000000 0.000000
      length 8.563163
      axis 0.0 0.0 90.0 xyz
      dof ry rz rx
   end
   begin
      id 19
      name RightHand
      direction 0.000000 0.000000 0.000000
      length 0.000000
      axis 0.0 0.0 90.0 xyz
      dof rx ry rz
   end
   begin
      id 20
      name RightHand_dum1
      direction 0.000000 0.000000 0.000000
      length 0.000000
      axis 0.0 0.0 90.0 xyz
   end
   begin
      id 21
      name RightHand_dum2
      direction -1.000000 0.000000 0.000000
      length 3.937000
      axis 0.0 0.0 90.0 xyz
   end
   begin
      id 22
      name RightHandThumb1
      direction 0.000000 0.000000 1.000000
      length 3.937000
      axis 0.0 0.0 90.0 xyz
      dof rx rz ry
   end
   begin
      id 23
      name LeftUpLeg
      direction 0.000000 -1.000000 0.000000
      length 16.346831
      axis 0.0 0.0 0.0 xyz
      dof rx ry rz
   end
   begin
      id 24
      name LeftLeg
      direction 0.000000 -1.000000 0.000000
      length 13.959795
      axis 0.0 0.0 0.0 xyz
      dof rx ry rz
   end
   begin
      id 25
      name LeftFoot
      direction 0.000000 -0.258819 0.965926
      length 5.165550
      axis 15.0 0.0 0.0 xyz
      dof rx ry rz
   end
   begin
      id 26
      name LeftToeBase
      direction 0.000000 0.000000 1.000000
      length 2.952750
      axis 0.0 0.0 0.0 xyz
      dof rx ry rz
   end
   begin
      id 27
      name RightUpLeg
      direction 0.000000 -1.000000 0.000000
      length 16.346831
      axis 0.0 0.0 0.0 xyz
      dof rx ry rz
   end
   begin
      id 28
      name RightLeg
      direction 0.000000 -1.000000 0.000000
      length 13.959795
      axis 0.0 0.0 0.0 xyz
      dof rx ry rz
   end
   begin
      id 29
      name RightFoot
      direction 0.000000 -0.258819 0.965926
      length 5.165550
      axis 15.0 0.0 0.0 xyz
      dof rx ry rz
   end
   begin
      id 30
      name RightToeBase
      direction 0.000000 0.000000 1.000000
      length 2.952750
      axis 0.0 0.0 0.0 xyz
      dof rx ry rz
   end
:hierarchy
   begin
      root Spine_dum LeftUpLeg_dum RightUpLeg_dum
      Spine_dum Spine
      LeftUpLeg_dum LeftUpLeg
      RightUpLeg_dum RightUpLeg
      Spine Spine_dum1 Spine_dum2 Spine_dum3
      Spine_dum1 Head
      Spine_dum2 LeftShoulder
      Spine_dum3 RightShoulder
      LeftShoulder LeftArm
      LeftArm LeftForeArm
      LeftForeArm LeftHand
      LeftHand LeftHand_dum1 LeftHand_dum2
      LeftHand_dum1 LeftHandThumb1
      RightShoulder RightArm
      RightArm RightForeArm
      RightForeArm RightHand
      RightHand RightHand_dum1 RightHand_dum2
      RightHand_dum1 RightHandThumb1
      LeftUpLeg LeftLeg
      LeftLeg LeftFoot
      LeftFoot LeftToeBase
      RightUpLeg RightLeg
      RightLeg RightFoot
      RightFoot RightToeBase
   end

# File created by Blade
# Date/Time:  Tue Jan 27 18:12:42 2015
# Frame Rate: 120.000 fps
#------------------------------------------------------
:FULLY-SPECIFIED
:DEGREES
1578
root -1.409287 31.821173 -6.834103 5.715676 11.516359 3.872471
Spine -8.139744 -0.035278 -2.164930
Head 9.100577 -13.496428 1.544070
LeftShoulder -11.665256 16.674181 4.290924
LeftArm 27.555195 41.648588 -67.814063
LeftForeArm -1.937229 0.000000 15.976492
LeftHand -10.286125 0.000000 -6.003639
LeftHandThumb1 -26.253704 0.000000 33.147579
RightShoulder 5.355196 18.204296 -10.729511
RightArm 19.083352 14.648284 81.236525
RightForeArm 14.535847 0.000000 108.263088
RightHand -14.522600 -0.000000 -5.129384
RightHandThumb1 -24.326973 -0.000000 -32.862282
LeftUpLeg -2.355021 -3.691496 -1.294970
LeftLeg 1.311873 -0.000000 -0.000000
LeftFoot -16.818364 15.311336 -24.103677
LeftToeBase 8.670635 -0.000000 -0.000000
RightUpLeg 1.931588 -7.168691 -4.036724
RightLeg -3.632615 -0.000000 0.000000
RightFoot -15.804531 -15.122992 9.961810
RightToeBase 5.233411 -0.000000 -0.000000
1579
root -1.409710 31.821104 -6.833041 5.711664 11.557656 3.877042
Spine -8.132360 -0.036312 -2.169058
Head 9.126697 -13.497171 1.516667
LeftShoulder -11.660651 16.678328 4.296853
LeftArm 27.542670 41.658705 -67.776346
LeftForeArm -1.762681 -0.000000 15.954319
LeftHand -10.389622 -0.000000 -6.058079
LeftHandThumb1 -26.253704 0.000000 33.147579
RightShoulder 5.366543 18.216147 -10.699467
RightArm 19.059663 14.711451 81.306123
RightForeArm 14.534240 0.000000 108.364413
RightHand -14.449820 0.000000 -4.977269
RightHandThumb1 -24.326973 -0.000000 -32.862282
LeftUpLeg -2.351195 -3.714736 -1.295118
LeftLeg 1.308305 -0.000000 -0.000000
LeftFoot -16.804057 15.308949 -24.082637
LeftToeBase 8.685104 -0.000000 -0.000000
RightUpLeg 1.948609 -7.195979 -4.037193
RightLeg -3.637398 -0.000000 0.000000
RightFoot -15.818008 -15.128643 9.979816
RightToeBase 5.241494 -0.000000 -0.000000
1580
root -1.408926 31.820805 -6.832642 5.711879 11.593377 3.889613
Spine -8.123079 -0.034667 -2.180536
Head 9.133659 -13.496195 1.494475
LeftShoulder -11.666444 16.677844 4.309299
LeftArm 27.545041 41.699216 -67.732826
LeftForeArm -1.717930 -0.000000 15.917707
LeftHand -10.414710 -0.000000 -6.070910
LeftHandThumb1 -26.253704 0.000000 33.147579
RightShoulder 5.369964 18.243875 -10.678454
RightArm 19.020159 14.768564 81.362038
RightForeArm 14.595808 -0.000000 108.456901
RightHand -14.345838 -0.000000 -4.827482
RightHandThumb1 -24.326973 -0.000000 -32.862282
LeftUpLeg -2.351295 -3.736862 -1.305918
LeftLeg 1.308883 -0.000000 -0.000000
LeftFoot -16.801732 15.295810 -24.094407
LeftToeBase 8.679688 -0.000000 -0.000000
RightUpLeg 1.947382 -7.266974 -4.047957
RightLeg -3.614003 -0.000000 0.000000
RightFoot -15.825776 -15.107553 9.956632
RightToeBase 5.191541 -0.000000 -0.000000
1581
root -1.409675 31.821138 -6.832478 5.713113 11.624838 3.889267
Spine -8.120948 -0.028279 -2.182495
Head 9.157618 -13.470761 1.498444
LeftShoulder -11.661521 16.687952 4.327529
LeftArm 27.533025 41.721937 -67.714349
LeftForeArm -1.712924 -0.000000 15.875984
LeftHand -10.457866 -0.000000 -6.032276
LeftHandThumb1 -26.253704 0.000000 33.147579
RightShoulder 5.368480 18.253442 -10.647211
RightArm 19.002225 14.815297 81.415871
RightForeArm 14.647421 0.000000 108.543708
RightHand -14.303437 -0.000000 -4.783125
RightHandThumb1 -24.326973 -0.000000 -32.862282
LeftUpLeg -2.355404 -3.762909 -1.298985
LeftLeg 1.307724 -0.000000 -0.000000
LeftFoot -16.779335 15.292390 -24.074113
LeftToeBase 8.646214 -0.000000 -0.000000
RightUpLeg 1.964946 -7.236642 -4.042875
RightLeg -3.642648 -0.000000 0.000000
RightFoot -15.820942 -15.172024 9.964796
RightToeBase 5.261483 -0.000000 -0.000000
1582
root -1.408527 31.820822 -6.831629 5.712350 11.654595 3.903698
Spine -8.117689 -0.034395 -2.192037
Head 9.188790 -13.469252 1.452500
LeftShoulder -11.662054 16.705629 4.342893
LeftArm 27.502826 41.724402 -67.711047
LeftForeArm -1.721690 -0.000000 15.853145
LeftHand -10.485628 -0.000000 -6.019145
LeftHandThumb1 -26.253704 0.000000 33.147579
RightShoulder 5.386497 18.272300 -10.631820
RightArm 18.971447 14.877935 81.501147
RightForeArm 14.667729 0.000000 108.619458
RightHand -14.236023 -0.000000 -4.780004
RightHandThumb1 -24.326973 -0.000000 -32.862282
LeftUpLeg -2.352175 -3.789150 -1.313499
LeftLeg 1.305143 -0.000000 -0.000000
LeftFoot -16.781888 15.290879 -24.098241
LeftToeBase 8.669624 -0.000000 -0.000000
RightUpLeg 1.952813 -7.327489 -4.056045
RightLeg -3.593185 -0.000000 0.000000
RightFoot -15.849967 -15.118854 9.942877
RightToeBase 5.216869 -0.000000 -0.000000
1583
root -1.408431 31.820947 -6.830901 5.713593 11.685346 3.906510
Spine -8.116924 -0.030885 -2.194821
Head 9.209018 -13.465260 1.435275
LeftShoulder -11.659786 16.717469 4.359103
LeftArm 27.479178 41.738203 -67.700475
LeftForeArm -1.707395 -0.000000 15.816941
LeftHand -10.506389 -0.000000 -6.122413
LeftHandThumb1 -26.253704 0.000000 33.147579
RightShoulder 5.380606 18.285853 -10.618222
RightArm 18.956608 14.922949 81.580077
RightForeArm 14.694356 0.000000 108.674815
RightHand -14.338081 -0.000000 -4.823249
RightHandThumb1 -24.326973 -0.000000 -32.862282
LeftUpLeg -2.358132 -3.790378 -1.314498
LeftLeg 1.316412 -0.000000 -0.000000
LeftFoot -16.779993 15.250722 -24.112022
LeftToeBase 8.719370 -0.000000 -0.000000
RightUpLeg 1.961663 -7.338796 -4.057545
RightLeg -3.596309 -0.000000 0.000000
RightFoot -15.850427 -15.130547 9.951590
RightToeBase 5.205454 -0.000000 -0.000000
1584
root -1.409187 31.821264 -6.830573 5.718673 11.713433 3.903372
Spine -8.122559 -0.025586 -2.192940
Head 9.237691 -13.468209 1.416414
LeftShoulder -11.648969 16.724437 4.376011
LeftArm 27.453679 41.769067 -67.686026
LeftForeArm -1.701359 -0.000000 15.772147
LeftHand -10.545145 0.000000 -6.115015
LeftHandThumb1 -26.253704 0.000000 33.147579
RightShoulder 5.374341 18.302678 -10.608633
RightArm 18.940311 14.967574 81.661688
RightForeArm 14.717303 0.000000 108.723573
RightHand -14.378470 -0.000000 -4.935444
RightHandThumb1 -24.326973 -0.000000 -32.862282
LeftUpLeg -2.366257 -3.832104 -1.304912
LeftLeg 1.315983 -0.000000 -0.000000
LeftFoot -16.775614 15.268547 -24.114441
LeftToeBase 8.666026 -0.000000 -0.000000
RightUpLeg 1.978889 -7.261775 -4.049214
RightLeg -3.634184 -0.000000 0.000000
RightFoot -15.842924 -15.219896 9.989590
RightToeBase 5.213862 -0.000000 -0.000000
1585
root -1.409918 31.821532 -6.829289 5.720235 11.749227 3.898124
Spine -8.127198 -0.038321 -2.188251
Head 9.265622 -13.452634 1.409993
LeftShoulder -11.647572 16.736012 4.390419
LeftArm 27.418225 41.788408 -67.689369
LeftForeArm -1.752182 -0.000000 15.713312
LeftHand -10.574382 -0.000000 -6.115742
LeftHandThumb1 -26.253704 0.000000 33.147579
RightShoulder 5.375484 18.310691 -10.601543
RightArm 18.934720 15.007469 81.740733
RightForeArm 14.736931 -0.000000 108.751347
RightHand -14.431259 -0.000000 -5.036615
RightHandThumb1 -24.326973 -0.000000 -32.862282
LeftUpLeg -2.369337 -3.851190 -1.293529
LeftLeg 1.312040 -0.000000 -0.000000
LeftFoot -16.758510 15.251974 -24.103884
LeftToeBase 8.663238 -0.000000 -0.000000
RightUpLeg 1.991680 -7.275859 -4.039241
RightLeg -3.649085 -0.000000 0.000000
RightFoot -15.845252 -15.242319 9.999412
RightToeBase 5.242828 -0.000000 -0.000000
1586
root -1.409601 31.821066 -6.828067 5.718845 11.774805 3.903659
Spine -8.125271 -0.046116 -2.194602
Head 9.291114 -13.432542 1.405817
LeftShoulder -11.639374 16.745759 4.414845
LeftArm 27.373122 41.802779 -67.707626
LeftForeArm -1.805905 -0.000000 15.650317
LeftHand -10.501303 -0.000000 -6.037776
LeftHandThumb1 -26.253704 0.000000 33.147579
RightShoulder 5.372044 18.324725 -10.600955
RightArm 18.919307 15.035064 81.796685
RightForeArm 14.746242 -0.000000 108.765461
RightHand -14.474408 -0.000000 -5.150840
RightHandThumb1 -24.326973 -0.000000 -32.862282
LeftUpLeg -2.373180 -3.849853 -1.295338
LeftLeg 1.335506 -0.000000 -0.000000
LeftFoot -16.778058 15.198715 -24.123497
LeftToeBase 8.716855 -0.000000 -0.000000
RightUpLeg 1.982673 -7.353933 -4.042534
RightLeg -3.610071 -0.000000 0.000000
RightFoot -15.861468 -15.199905 9.965957
RightToeBase 5.227104 -0.000000 -0.000000
1587
root -1.407403 31.821252 -6.827356 5.722366 11.803458 3.920659
Spine -8.129337 -0.051497 -2.208886
Head 9.325191 -13.422164 1.387074
LeftShoulder -11.621127 16.749643 4.432292
LeftArm 27.301457 41.794580 -67.753715
LeftForeArm -1.801521 -0.000000 15.591028
LeftHand -10.460382 -0.000000 -5.986153
LeftHandThumb1 -26.253704 0.000000 33.147579
RightShoulder 5.370648 18.331419 -10.598535
RightArm 18.907562 15.064201 81.827618
RightForeArm 14.746441 0.000000 108.763310
RightHand -14.523407 0.000000 -5.229508
RightHandThumb1 -24.326973 -0.000000 -32.862282
LeftUpLeg -2.373433 -3.900212 -1.315372
LeftLeg 1.326281 -0.000000 -0.000000
LeftFoot -16.765713 15.245756 -24.115395
LeftToeBase 8.673427 -0.000000 -0.000000
RightUpLeg 1.982124 -7.398457 -4.060959
RightLeg -3.590837 -0.000000 0.000000
RightFoot -15.881480 -15.183541 9.969119
RightToeBase 5.208689 -0.000000 -0.000000
1588
root -1.406972 31.821421 -6.826286 5.722146 11.824954 3.920996
Spine -8.131834 -0.060095 -2.209810
Head 9.351598 -13.406911 1.388159
LeftShoulder -11.619606 16.775994 4.442799
LeftArm 27.257927 41.790624 -67.772196
LeftForeArm -1.735163 -0.000000 15.552571
LeftHand -10.550414 -0.000000 -6.172586
LeftHandThumb1 -26.253704 0.000000 33.147579
RightShoulder 5.365815 18.350908 -10.595368
RightArm 18.893497 15.072554 81.854831
RightForeArm 14.742337 -0.000000 108.730561
RightHand -14.543212 -0.000000 -5.266752
RightHandThumb1 -24.326973 -0.000000 -32.862282
LeftUpLeg -2.373309 -3.917583 -1.315214
LeftLeg 1.327625 -0.000000 -0.000000
LeftFoot -16.761093 15.259388 -24.097269
LeftToeBase 8.671107 -0.000000 -0.000000
RightUpLeg 1.989028 -7.417845 -4.060384
RightLeg -3.592642 -0.000000 0.000000
RightFoot -15.881782 -15.171577 9.979171
RightToeBase 5.219888 -0.000000 -0.000000
1589
root -1.405841 31.821463 -6.826186 5.724327 11.845913 3.925928
Spine -8.132381 -0.071963 -2.214527
Head 9.376590 -13.399477 1.383387
LeftShoulder -11.616774 16.788910 4.456174
LeftArm 27.180648 41.762953 -67.825650
LeftForeArm -1.680068 0.000000 15.514233
LeftHand -10.544510 0.000000 -6.223214
LeftHandThumb1 -26.253704 0.000000 33.147579
RightShoulder 5.363117 18.351717 -10.603781
RightArm 18.894049 15.085659 81.877802
RightForeArm 14.734652 -0.000000 108.684618
RightHand -14.576652 -0.000000 -5.332666
RightHandThumb1 -24.326973 -0.000000 -32.862282
LeftUpLeg -2.381018 -3.932065 -1.318428
LeftLeg 1.336335 -0.000000 -0.000000
LeftFoot -16.750454 15.249998 -24.079476
LeftToeBase 8.662272 -0.000000 -0.000000
RightUpLeg 1.982544 -7.438194 -4.063978
RightLeg -3.571324 -0.000000 0.000000
RightFoot -15.898699 -15.181066 9.986306
RightToeBase 5.226382 -0.000000 -0.000000
1590
root -1.404392 31.821511 -6.824796 5.725482 11.858381 3.934917
Spine -8.136546 -0.079430 -2.223618
Head 9.405451 -13.387489 1.378782
LeftShoulder -11.606021 16.793967 4.471290
LeftArm 27.086845 41.761648 -67.878106
LeftForeArm -1.677903 -0.000000 15.481608
LeftHand -10.564223 0.000000 -6.263229
LeftHandThumb1 -26.253704 0.000000 33.147579
RightShoulder 5.356882 18.348685 -10.606732
RightArm 18.904142 15.080672 81.884412
RightForeArm 14.700167 0.000000 108.619926
RightHand -14.633685 -0.000000 -5.312499
RightHandThumb1 -24.326973 -0.000000 -32.862282
LeftUpLeg -2.374939 -3.939070 -1.330332
LeftLeg 1.330022 -0.000000 -0.000000
LeftFoot -16.732422 15.269481 -24.033640
LeftToeBase 8.648797 -0.000000 -0.000000
RightUpLeg 1.983079 -7.466600 -4.073868
RightLeg -3.560064 -0.000000 0.000000
RightFoot -15.912835 -15.179435 9.973954
RightToeBase 5.233530 -0.000000 -0.000000
